<svg id="Layer_1" enable-background="new 0 0 512 512" height="512" viewBox="0 0 512 512" width="512" xmlns="http://www.w3.org/2000/svg"><path d="m497 60.445h.01z"/><g><path d="m497 0h-45.445c-3.979 0-7.794 1.58-10.606 4.394l-290.896 290.895 66.658 66.658 290.895-290.896c2.814-2.813 4.394-6.628 4.394-10.607v-45.444c0-8.284-6.716-15-15-15z"/><path d="m59.792 385.693c-8.902 8.902-13.637 20.537-14.081 32.272-11.592.324-23.087 4.897-31.935 13.744-18.367 18.367-18.367 48.147 0 66.515 18.367 18.367 48.147 18.367 66.515 0 8.794-8.794 13.366-20.205 13.739-31.726 11.523-.372 22.935-4.948 31.73-13.743l27.24-27.241-66.515-66.514z"/><path d="m272.446 306.798h94.268v25.564h-94.268z" transform="matrix(.707 -.707 .707 .707 -132.374 319.58)"/><path d="m168.129 234.786 66.658-66.658-163.735-163.734c-2.813-2.814-6.628-4.394-10.607-4.394h-45.445c-8.284 0-15 6.716-15 15v45.444c0 3.979 1.58 7.794 4.394 10.606z"/><path d="m466.29 417.966c-.444-11.735-5.18-23.371-14.081-32.272l-26.694-26.694-66.515 66.514 27.241 27.241c8.795 8.795 20.207 13.371 31.73 13.743.373 11.521 4.945 22.932 13.739 31.726 18.367 18.367 48.147 18.367 66.515 0 18.367-18.367 18.367-48.147 0-66.515-8.848-8.846-20.343-13.419-31.935-13.743z"/><path d="m443.349 277.527c-5.858-5.858-15.356-5.857-21.213 0l-144.609 144.608c-5.858 5.857-5.858 15.356 0 21.213 5.857 5.857 15.355 5.857 21.213 0l144.609-144.608c5.858-5.857 5.858-15.355 0-21.213z"/><path d="m89.864 277.527c-5.857-5.857-15.355-5.858-21.213 0s-5.858 15.355 0 21.213l144.609 144.608c5.857 5.857 15.356 5.857 21.213 0 5.858-5.857 5.858-15.355 0-21.213z"/></g></svg>